<?xml version="1.0" encoding="utf-8"?>
<!-- Generator: Adobe Illustrator 19.2.1, SVG Export Plug-In . SVG Version: 6.00 Build 0)  -->
<svg version="1.1" id="layer" xmlns="http://www.w3.org/2000/svg" xmlns:xlink="http://www.w3.org/1999/xlink" x="0px" y="0px"
	 viewBox="0 0 652 652" style="enable-background:new 0 0 652 652;" xml:space="preserve">
<path d="M618.1,272.8c0,4.3-3.5,7.8-7.8,7.8c-4.3,0-7.8-3.5-7.8-7.8c0-4.3,3.5-7.8,7.8-7.8C614.6,265,618.1,268.5,618.1,272.8
	 M610.3,263.1c-5.4,0-9.7,4.4-9.7,9.7c0,5.4,4.4,9.7,9.7,9.7c5.4,0,9.7-4.4,9.7-9.7C620,267.4,615.7,263.1,610.3,263.1 M606.3,267.7
	h5.2c1.7,0,2.8,1.2,2.8,2.6c0,1.1-0.5,2-1.5,2.4v0c1,0.3,1.3,1.3,1.4,2.2c0,0.6,0,1.7,0.4,2.3h-2.1c-0.3-0.6-0.2-1.5-0.3-2.3
	c-0.1-1-0.5-1.5-1.6-1.5h-2.1v3.7h-2.1V267.7z M608.4,272h2.3c0.9,0,1.5-0.4,1.5-1.4c0-0.9-0.5-1.3-1.5-1.3h-2.3V272z M396.2,289
	v69.6c0,1.1,0.3,2.2,0.9,3.2l8.5,14.7c1.2,2.1,3.4,3.2,5.6,3.2h34.5c1.1,0,2.2-0.3,3.2-0.9l12.9-7.5c0.3-0.1,0.5-0.2,0.8-0.2
	c0.9,0,1.6,0.7,1.6,1.6v4.5c0,1.3,1.1,2.4,2.4,2.4h14.6c1.3,0,2.4-1.1,2.4-2.4v-85.9c0-1.3-1.1-2.4-2.4-2.4h-14.6
	c-1.3,0-2.4,1.1-2.4,2.4v66.5c0,1.3-1.1,2.4-2.4,2.4h-43.8c-1.3,0-2.4-1.1-2.4-2.4v-66.5c0-1.3-1.1-2.4-2.4-2.4H396.2z M369.5,379.8
	c-1.3,0-2.4-1.1-2.4-2.4V289h19.5v88.4c0,1.3-1.1,2.4-2.4,2.4H369.5z M367.1,263.1v17.8h19.5v-15.4c0-1.3-1.1-2.4-2.4-2.4H367.1z
	 M138.4,308.5h16.2V289h-16.2v-23.5c0-1.3-1.1-2.4-2.4-2.4h-14.6c-1.3,0-2.4,1.1-2.4,2.4v111.9c0,1.3,1.1,2.4,2.4,2.4H136
	c1.3,0,2.4-1.1,2.4-2.4V308.5z M357.3,263.1v114.3c0,1.3-1.1,2.4-2.4,2.4h-14.6c-1.3,0-2.4-1.1-2.4-2.4v-4.5c0-0.9-0.7-1.6-1.6-1.6
	c-0.3,0-0.6,0.1-0.8,0.2l-12.9,7.5c-1,0.6-2.1,0.9-3.2,0.9h-56.8c-1.3,0-2.4-1.1-2.4-2.4V309c0-2.2,1.2-4.4,3.2-5.6l23.3-13.5
	c1-0.6,2.1-0.9,3.2-0.9h48v-23.5c0-1.3,1.1-2.4,2.4-2.4H357.3z M279.5,357.9c0,1.3,1.1,2.4,2.4,2.4h53.5c1.3,0,2.4-1.1,2.4-2.4
	v-59.6c0-0.9-0.7-1.6-1.6-1.6c-0.3,0-0.6,0.1-0.8,0.2l-18.5,10.7c-1,0.6-2.1,0.9-3.2,0.9h-31.7c-1.3,0-2.4,1.1-2.4,2.4V357.9z
	 M228.4,360.4c1.3,0,2.4-1.1,2.4-2.4V326c0-0.9-0.7-1.6-1.6-1.6c-0.3,0-0.6,0.1-0.8,0.2l-56.7,32.7c-0.5,0.3-0.8,0.8-0.8,1.4
	c0,0.9,0.7,1.6,1.6,1.6H228.4z M250.3,377.4c0,1.3-1.1,2.4-2.4,2.4h-14.6c-1.3,0-2.4-1.1-2.4-2.4v-4.5c0-0.9-0.7-1.6-1.6-1.6
	c-0.3,0-0.6,0.1-0.8,0.2l-12.9,7.5c-1,0.6-2.1,0.9-3.2,0.9h-52.6c-2.9,0-5.5-1.9-6.3-4.8l-5.6-20.8c-0.1-0.6-0.2-1.1-0.2-1.7
	c0-2.2,1.2-4.4,3.2-5.6l61.3-35.4c0.5-0.3,0.8-0.8,0.8-1.4c0-0.9-0.7-1.6-1.6-1.6h-48.6V289h67.1c2.2,0,4.4,1.2,5.6,3.2l14,24.2
	c0.6,1,0.9,2.1,0.9,3.2V377.4z M97.7,379.8c2.9,0,5.5-1.9,6.3-4.8l5.6-20.8c0.2-0.6,0.2-1.1,0.2-1.7c0-2.2-1.2-4.4-3.2-5.6
	l-61.3-35.4c-0.5-0.3-0.8-0.8-0.8-1.4c0-0.9,0.7-1.6,1.6-1.6h64.8V289H33.2c-2.9,0-5.5,1.9-6.3,4.8l-5.6,20.8
	c-0.2,0.6-0.2,1.1-0.2,1.7c0,2.2,1.2,4.4,3.2,5.6l61.3,35.4c0.5,0.3,0.8,0.8,0.8,1.4c0,0.9-0.7,1.6-1.6,1.6H22.5
	c-1.3,0-2.4,1.1-2.4,2.4v14.6c0,1.3,1.1,2.4,2.4,2.4H97.7z M531.6,289c-1.1,0-2.2,0.3-3.2,0.9l-12.9,7.5c-0.3,0.1-0.5,0.2-0.8,0.2
	c-0.9,0-1.6-0.7-1.6-1.6v-4.5c0-1.3-1.1-2.4-2.4-2.4H496c-1.3,0-2.4,1.1-2.4,2.4v85.9c0,1.3,1.1,2.4,2.4,2.4h14.6
	c1.3,0,2.4-1.1,2.4-2.4v-66.5c0-1.3,1.1-2.4,2.4-2.4h29.2c1.3,0,2.4,1.1,2.4,2.4v66.5c0,1.3,1.1,2.4,2.4,2.4h14.6
	c1.3,0,2.4-1.1,2.4-2.4v-68.9h31.6c1.3,0,2.4,1.1,2.4,2.4v66.5c0,1.3,1.1,2.4,2.4,2.4h14.6c1.3,0,2.4-1.1,2.4-2.4v-67.2
	c0-1.1-0.3-2.2-0.9-3.2l-8.5-14.7c-1.2-2.1-3.4-3.2-5.6-3.2h-36.1c-1.3,0-2.4,1.1-2.4,2.4V307l-8.5-14.7c-1.2-2.1-3.4-3.2-5.6-3.2
	H531.6z"/>
</svg>
